<svg xmlns="http://www.w3.org/2000/svg" version="1.0" width="247.000000pt" height="204.000000pt" viewBox="0 0 247.000000 204.000000" preserveAspectRatio="xMidYMid meet">

<g transform="translate(0.000000,204.000000) scale(0.100000,-0.100000)" fill="#abd8b5" stroke="none">
<path d="M248 2016 c-100 -36 -175 -104 -220 -201 l-23 -50 0 -735 c0 -823 -3 -784 73 -885 39 -52 121 -108 182 -125 47 -13 1903 -13 1950 0 61 17 143 73 182 125 76 101 73 63 73 875 0 812 3 774 -73 875 -39 52 -121 108 -182 125 -22 6 -395 10 -980 10 -751 -1 -952 -4 -982 -14z m862 -643 c0 -5 -7 -46 -15 -93 -8 -47 -15 -85 -15 -85 0 0 -47 1 -105 3 l-105 3 0 -50 0 -51 95 0 95 0 0 -85 0 -85 -95 0 -95 0 0 -135 0 -135 -115 0 -115 0 0 360 0 360 235 0 c129 0 235 -3 235 -7z m585 -15 c81 -45 117 -116 117 -234 0 -94 -22 -156 -70 -199 l-31 -27 60 -119 59 -120 -127 3 -128 3 -44 103 c-38 87 -48 102 -68 102 -23 0 -23 -2 -23 -105 l0 -105 -120 0 -120 0 0 361 0 361 233 -4 c193 -2 237 -6 262 -20z" fill="#abd8b5"/>
<path d="M1440 1125 l0 -78 50 5 c63 6 80 21 80 67 0 52 -17 68 -77 76 l-53 7 0 -77z" fill="#abd8b5"/>
</g>
</svg>