<svg xmlns="http://www.w3.org/2000/svg" version="1.0" width="512.000000pt" height="512.000000pt" viewBox="0 0 512.000000 512.000000" preserveAspectRatio="xMidYMid meet">

<g transform="translate(0.000000,512.000000) scale(0.100000,-0.100000)" fill="#abd8b5" stroke="none">
<path d="M618 4650 c-277 -47 -510 -258 -590 -535 l-23 -80 0 -1475 0 -1475 23 -82 c71 -246 258 -435 512 -515 l75 -23 1950 0 1950 0 80 27 c267 91 455 303 510 573 14 72 15 231 13 1530 -4 1626 3 1484 -79 1651 -90 184 -243 314 -454 385 l-70 24 -1925 1 c-1059 1 -1946 -2 -1972 -6z m1682 -1379 c0 -28 -50 -343 -56 -353 -3 -4 -115 -8 -250 -8 l-244 0 0 -95 0 -95 230 0 230 0 0 -170 0 -170 -230 0 -230 0 0 -85 0 -85 283 -2 282 -3 0 -185 0 -185 -515 0 -515 0 -3 715 c-1 393 0 721 3 728 3 9 115 12 510 12 491 0 505 -1 505 -19z m714 -33 c18 -29 90 -147 160 -262 70 -114 142 -231 161 -259 l35 -51 2 309 3 310 230 0 230 0 0 -725 0 -725 -218 0 -219 0 -184 300 c-102 165 -190 304 -195 310 -5 5 -9 -110 -9 -303 l0 -312 -230 0 -230 0 0 730 0 730 215 0 215 0 34 -52z" fill="#abd8b5"/>
</g>
</svg>