<svg xmlns="http://www.w3.org/2000/svg" version="1.0" width="248.000000pt" height="203.000000pt" viewBox="0 0 248.000000 203.000000" preserveAspectRatio="xMidYMid meet">

<g transform="translate(0.000000,203.000000) scale(0.100000,-0.100000)" fill="#abd8b5" stroke="none">
<path d="M282 2020 c-102 -21 -201 -104 -250 -208 l-27 -57 0 -740 0 -740 27 -57 c37 -79 98 -142 177 -181 l66 -32 965 0 965 0 66 32 c79 39 140 102 177 181 l27 57 0 740 0 740 -32 66 c-39 79 -102 140 -181 177 l-57 27 -940 2 c-517 0 -959 -3 -983 -7z m782 -712 c8 -29 47 -177 86 -328 39 -151 73 -283 76 -292 5 -16 -5 -18 -114 -18 l-119 0 -12 55 -13 56 -91 -3 -91 -3 -11 -50 -10 -50 -119 -3 c-109 -2 -118 -1 -114 15 2 10 42 165 89 345 l84 328 172 0 172 0 15 -52z m677 37 c90 -32 133 -107 133 -230 0 -86 -24 -154 -67 -191 l-31 -26 54 -106 c30 -59 56 -110 58 -114 2 -5 -52 -8 -120 -8 l-123 0 -42 98 c-35 84 -45 97 -67 100 l-26 3 0 -100 0 -101 -110 0 -110 0 0 345 0 345 204 0 c158 0 213 -3 247 -15z" fill="#abd8b5"/>
<path d="M856 1072 c-10 -42 -20 -85 -22 -94 -5 -15 2 -18 44 -18 l49 0 -21 89 c-12 49 -24 92 -27 95 -3 3 -13 -29 -23 -72z" fill="#abd8b5"/>
<path d="M1510 1115 l0 -65 55 0 c59 0 75 13 75 65 0 52 -16 65 -75 65 l-55 0 0 -65z" fill="#abd8b5"/>
</g>
</svg>